<svg id="visual" viewBox="0 0 900 600" width="900" height="600" xmlns="http://www.w3.org/2000/svg" xmlns:xlink="http://www.w3.org/1999/xlink" version="1.1"><g stroke-width="1" stroke-linejoin="bevel"><path d="M463 283L438 200L379 260Z" fill="#19435d" stroke="#19435d"></path><path d="M463 283L537 201L438 200Z" fill="#246688" stroke="#246688"></path><path d="M379 260L393 369L463 283Z" fill="#246688" stroke="#246688"></path><path d="M463 283L565 213L537 201Z" fill="#112e42" stroke="#112e42"></path><path d="M380 78L314 174L438 200Z" fill="#081a28" stroke="#081a28"></path><path d="M438 200L314 174L379 260Z" fill="#19435d" stroke="#19435d"></path><path d="M379 260L324 374L393 369Z" fill="#277297" stroke="#277297"></path><path d="M314 174L291 261L379 260Z" fill="#246688" stroke="#246688"></path><path d="M531 364L565 213L463 283Z" fill="#15384f" stroke="#15384f"></path><path d="M393 369L531 364L463 283Z" fill="#1d4e6b" stroke="#1d4e6b"></path><path d="M291 261L324 374L379 260Z" fill="#00101c" stroke="#00101c"></path><path d="M519 535L613 387L531 364Z" fill="#0c2435" stroke="#0c2435"></path><path d="M622 73L501 101L537 201Z" fill="#081a28" stroke="#081a28"></path><path d="M537 201L501 101L438 200Z" fill="#112e42" stroke="#112e42"></path><path d="M501 101L380 78L438 200Z" fill="#277297" stroke="#277297"></path><path d="M380 78L324 104L314 174Z" fill="#15384f" stroke="#15384f"></path><path d="M197 177L204 313L291 261Z" fill="#0c2435" stroke="#0c2435"></path><path d="M531 364L636 331L565 213Z" fill="#1d4e6b" stroke="#1d4e6b"></path><path d="M565 213L622 73L537 201Z" fill="#205a7a" stroke="#205a7a"></path><path d="M519 535L531 364L393 369Z" fill="#15384f" stroke="#15384f"></path><path d="M531 364L613 387L636 331Z" fill="#0c2435" stroke="#0c2435"></path><path d="M197 177L291 261L314 174Z" fill="#1d4e6b" stroke="#1d4e6b"></path><path d="M291 261L204 313L324 374Z" fill="#112e42" stroke="#112e42"></path><path d="M324 104L197 177L314 174Z" fill="#00101c" stroke="#00101c"></path><path d="M501 101L402 0L380 78Z" fill="#081a28" stroke="#081a28"></path><path d="M380 78L291 0L324 104Z" fill="#297ea6" stroke="#297ea6"></path><path d="M324 104L204 68L197 177Z" fill="#19435d" stroke="#19435d"></path><path d="M662 98L622 73L565 213Z" fill="#277297" stroke="#277297"></path><path d="M501 101L515 0L402 0Z" fill="#205a7a" stroke="#205a7a"></path><path d="M582 0L515 0L501 101Z" fill="#246688" stroke="#246688"></path><path d="M695 362L691 267L636 331Z" fill="#1d4e6b" stroke="#1d4e6b"></path><path d="M636 331L691 267L565 213Z" fill="#00101c" stroke="#00101c"></path><path d="M204 313L225 420L324 374Z" fill="#246688" stroke="#246688"></path><path d="M324 374L374 523L393 369Z" fill="#15384f" stroke="#15384f"></path><path d="M225 420L285 487L324 374Z" fill="#081a28" stroke="#081a28"></path><path d="M738 177L662 98L565 213Z" fill="#297ea6" stroke="#297ea6"></path><path d="M622 73L582 0L501 101Z" fill="#0c2435" stroke="#0c2435"></path><path d="M285 487L374 523L324 374Z" fill="#15384f" stroke="#15384f"></path><path d="M402 0L291 0L380 78Z" fill="#246688" stroke="#246688"></path><path d="M291 0L204 68L324 104Z" fill="#00101c" stroke="#00101c"></path><path d="M688 539L695 362L613 387Z" fill="#277297" stroke="#277297"></path><path d="M613 387L695 362L636 331Z" fill="#081a28" stroke="#081a28"></path><path d="M687 0L582 0L622 73Z" fill="#0c2435" stroke="#0c2435"></path><path d="M374 523L519 535L393 369Z" fill="#19435d" stroke="#19435d"></path><path d="M804 195L738 177L691 267Z" fill="#277297" stroke="#277297"></path><path d="M691 267L738 177L565 213Z" fill="#277297" stroke="#277297"></path><path d="M662 98L687 0L622 73Z" fill="#246688" stroke="#246688"></path><path d="M519 535L619 524L613 387Z" fill="#081a28" stroke="#081a28"></path><path d="M291 0L199 0L204 68Z" fill="#246688" stroke="#246688"></path><path d="M69 296L204 313L197 177Z" fill="#205a7a" stroke="#205a7a"></path><path d="M299 600L372 600L374 523Z" fill="#1d4e6b" stroke="#1d4e6b"></path><path d="M374 523L372 600L519 535Z" fill="#1d4e6b" stroke="#1d4e6b"></path><path d="M519 535L626 600L619 524Z" fill="#297ea6" stroke="#297ea6"></path><path d="M299 600L374 523L285 487Z" fill="#19435d" stroke="#19435d"></path><path d="M760 105L687 0L662 98Z" fill="#19435d" stroke="#19435d"></path><path d="M69 296L98 394L204 313Z" fill="#0c2435" stroke="#0c2435"></path><path d="M204 313L98 394L225 420Z" fill="#0c2435" stroke="#0c2435"></path><path d="M225 420L161 502L285 487Z" fill="#0c2435" stroke="#0c2435"></path><path d="M69 296L197 177L69 187Z" fill="#15384f" stroke="#15384f"></path><path d="M69 187L197 177L63 79Z" fill="#205a7a" stroke="#205a7a"></path><path d="M738 177L760 105L662 98Z" fill="#19435d" stroke="#19435d"></path><path d="M804 195L760 105L738 177Z" fill="#081a28" stroke="#081a28"></path><path d="M372 600L518 600L519 535Z" fill="#15384f" stroke="#15384f"></path><path d="M63 79L197 177L204 68Z" fill="#205a7a" stroke="#205a7a"></path><path d="M98 394L161 502L225 420Z" fill="#1d4e6b" stroke="#1d4e6b"></path><path d="M771 410L789 316L695 362Z" fill="#15384f" stroke="#15384f"></path><path d="M695 362L789 316L691 267Z" fill="#205a7a" stroke="#205a7a"></path><path d="M201 600L299 600L285 487Z" fill="#15384f" stroke="#15384f"></path><path d="M688 539L613 387L619 524Z" fill="#205a7a" stroke="#205a7a"></path><path d="M688 539L771 410L695 362Z" fill="#297ea6" stroke="#297ea6"></path><path d="M789 316L804 195L691 267Z" fill="#112e42" stroke="#112e42"></path><path d="M626 600L688 539L619 524Z" fill="#297ea6" stroke="#297ea6"></path><path d="M199 0L121 0L204 68Z" fill="#205a7a" stroke="#205a7a"></path><path d="M121 0L63 79L204 68Z" fill="#0c2435" stroke="#0c2435"></path><path d="M69 187L0 214L69 296Z" fill="#1d4e6b" stroke="#1d4e6b"></path><path d="M0 421L87 463L98 394Z" fill="#00101c" stroke="#00101c"></path><path d="M98 394L87 463L161 502Z" fill="#1d4e6b" stroke="#1d4e6b"></path><path d="M161 502L201 600L285 487Z" fill="#081a28" stroke="#081a28"></path><path d="M518 600L626 600L519 535Z" fill="#205a7a" stroke="#205a7a"></path><path d="M70 600L201 600L161 502Z" fill="#0c2435" stroke="#0c2435"></path><path d="M0 79L0 214L69 187Z" fill="#112e42" stroke="#112e42"></path><path d="M69 296L0 319L98 394Z" fill="#112e42" stroke="#112e42"></path><path d="M626 600L674 600L688 539Z" fill="#15384f" stroke="#15384f"></path><path d="M688 539L798 529L771 410Z" fill="#00101c" stroke="#00101c"></path><path d="M0 214L0 319L69 296Z" fill="#1d4e6b" stroke="#1d4e6b"></path><path d="M900 125L791 0L760 105Z" fill="#15384f" stroke="#15384f"></path><path d="M760 105L791 0L687 0Z" fill="#246688" stroke="#246688"></path><path d="M63 79L0 79L69 187Z" fill="#19435d" stroke="#19435d"></path><path d="M0 0L0 79L63 79Z" fill="#1d4e6b" stroke="#1d4e6b"></path><path d="M0 319L0 421L98 394Z" fill="#112e42" stroke="#112e42"></path><path d="M87 463L70 600L161 502Z" fill="#0c2435" stroke="#0c2435"></path><path d="M781 600L798 529L688 539Z" fill="#00101c" stroke="#00101c"></path><path d="M900 323L900 215L789 316Z" fill="#15384f" stroke="#15384f"></path><path d="M789 316L900 215L804 195Z" fill="#15384f" stroke="#15384f"></path><path d="M900 323L789 316L900 389Z" fill="#15384f" stroke="#15384f"></path><path d="M804 195L900 125L760 105Z" fill="#297ea6" stroke="#297ea6"></path><path d="M900 389L789 316L771 410Z" fill="#246688" stroke="#246688"></path><path d="M0 421L0 476L87 463Z" fill="#081a28" stroke="#081a28"></path><path d="M900 215L900 125L804 195Z" fill="#0c2435" stroke="#0c2435"></path><path d="M900 474L900 389L771 410Z" fill="#297ea6" stroke="#297ea6"></path><path d="M121 0L0 0L63 79Z" fill="#246688" stroke="#246688"></path><path d="M674 600L781 600L688 539Z" fill="#15384f" stroke="#15384f"></path><path d="M798 529L900 474L771 410Z" fill="#1d4e6b" stroke="#1d4e6b"></path><path d="M0 476L70 600L87 463Z" fill="#15384f" stroke="#15384f"></path><path d="M900 600L900 474L798 529Z" fill="#19435d" stroke="#19435d"></path><path d="M900 125L900 0L791 0Z" fill="#19435d" stroke="#19435d"></path><path d="M0 476L0 600L70 600Z" fill="#1d4e6b" stroke="#1d4e6b"></path><path d="M781 600L900 600L798 529Z" fill="#0c2435" stroke="#0c2435"></path></g></svg>